<svg width="876" height="262" viewBox="0 0 876 262" fill="none" xmlns="http://www.w3.org/2000/svg">
<mask id="path-1-outside-1" maskUnits="userSpaceOnUse" x="0" y="0" width="876" height="262" fill="black">
<rect fill="white" width="876" height="262"/>
<path d="M20.7244 113.669C13.8315 113.669 8.79431 112.161 5.61296 109.145C2.53765 106.036 1 101.936 1 96.8478C1 92.8899 2.06045 89.6388 4.18135 87.0944C6.4083 84.4558 9.21849 82.3355 12.6119 80.7335C16.0054 79.0373 19.5579 77.6238 23.2695 76.493C27.0871 75.2679 30.6926 74.09 34.0861 72.9591C37.4795 71.8283 40.2367 70.5561 42.3576 69.1426C44.5845 67.7291 45.698 65.9386 45.698 63.7712V55.0073C45.698 51.0494 45.0087 48.0339 43.6301 45.9607C42.3576 43.8876 40.6078 42.5212 38.3809 41.8615C36.1539 41.1076 33.6619 40.7307 30.9047 40.7307C28.2536 40.7307 25.3904 41.0605 22.3151 41.7201C19.3458 42.3798 16.9598 43.7462 15.157 45.8194C17.1719 46.1963 18.9216 47.1387 20.4062 48.6464C21.8909 50.1542 22.6332 52.086 22.6332 54.4419C22.6332 56.7978 21.7848 58.6825 20.0881 60.096C18.3914 61.4153 16.2175 62.075 13.5663 62.075C10.491 62.075 8.21106 61.2268 6.72643 59.5306C5.34785 57.7401 4.65855 55.7612 4.65855 53.5938C4.65855 51.1437 5.34785 49.1647 6.72643 47.657C8.10502 46.1492 9.85476 44.7357 11.9757 43.4164C14.4147 41.9086 17.543 40.6364 21.3606 39.5999C25.2843 38.469 29.6852 37.9036 34.5633 37.9036C38.9111 37.9036 42.6227 38.3748 45.698 39.3171C48.7733 40.1653 51.3184 41.4374 53.3332 43.1337C56.0904 45.3953 57.8932 48.1753 58.7415 51.4735C59.5899 54.6775 60.0141 58.5411 60.0141 63.0644V102.361C60.0141 104.622 60.3852 106.318 61.1275 107.449C61.8699 108.486 63.1424 109.004 64.9452 109.004C66.4298 109.004 67.7023 108.721 68.7628 108.156C69.9293 107.591 71.0427 106.884 72.1032 106.036L73.8529 108.439C71.626 109.946 69.5051 111.219 67.4902 112.255C65.4754 113.198 62.7712 113.669 59.3778 113.669C53.8634 113.669 50.2049 112.397 48.4021 109.852C46.5994 107.308 45.698 104.387 45.698 101.088C42.3045 106.083 38.4339 109.428 34.0861 111.124C29.8443 112.821 25.3904 113.669 20.7244 113.669ZM27.7234 108.015C30.9047 108.015 34.033 107.214 37.1083 105.612C40.1836 103.915 43.0469 101.135 45.698 97.2718V69.5667C44.1073 71.6398 41.6152 73.289 38.2218 74.514C34.9344 75.7391 31.4879 77.1055 27.8824 78.6132C24.3829 80.0268 21.3606 82.0057 18.8156 84.5501C16.2705 87.0002 14.9979 90.534 14.9979 95.1515C14.9979 99.4864 16.2175 102.737 18.6565 104.905C21.0955 106.978 24.1178 108.015 27.7234 108.015Z"/>
<path d="M142.1 37.9036C146.342 37.9036 149.948 38.5161 152.917 39.7412C155.886 40.9663 158.06 42.0971 159.439 43.1337C162.938 45.678 165.059 43.9818 165.801 38.045H169.46C169.248 40.6836 169.089 43.8404 168.983 47.5156C168.877 51.0966 168.824 55.9497 168.824 62.075H165.165C164.529 58.5883 163.415 55.1958 161.825 51.8976C160.34 48.5993 158.113 45.9136 155.144 43.8404C152.175 41.673 148.304 40.5893 143.532 40.5893C139.82 40.5893 136.692 41.5317 134.147 43.4164C131.708 45.2069 130.488 47.8926 130.488 51.4735C130.488 54.3006 131.443 56.7507 133.352 58.8238C135.26 60.8028 137.753 62.6875 140.828 64.478C143.903 66.1742 147.244 68.0589 150.849 70.1321C156.894 73.6188 162.037 77.1526 166.279 80.7335C170.52 84.3145 172.641 89.0262 172.641 94.8688C172.641 99.2037 171.369 102.832 168.824 105.753C166.279 108.674 162.938 110.889 158.802 112.397C154.773 113.904 150.319 114.658 145.441 114.658C143.108 114.658 140.881 114.47 138.76 114.093C136.745 113.81 134.783 113.339 132.874 112.679C131.814 112.208 130.701 111.643 129.534 110.983C128.474 110.323 127.413 109.617 126.353 108.863C125.292 108.109 124.338 108.156 123.489 109.004C122.641 109.758 122.005 111.313 121.581 113.669H117.922C118.134 110.653 118.293 106.978 118.399 102.643C118.505 98.3084 118.558 92.5601 118.558 85.3982H122.217C122.959 90.6754 124.02 95.2929 125.398 99.2508C126.777 103.209 128.951 106.318 131.92 108.58C134.889 110.747 139.025 111.831 144.327 111.831C147.509 111.831 150.637 110.842 153.712 108.863C156.894 106.884 158.484 103.397 158.484 98.4026C158.484 94.2563 156.788 90.8638 153.394 88.2252C150.001 85.5866 145.706 82.8067 140.51 79.8854C136.692 77.718 133.087 75.5506 129.693 73.3832C126.406 71.2158 123.702 68.7657 121.581 66.0328C119.566 63.3 118.558 60.0018 118.558 56.1381C118.558 51.8976 119.619 48.458 121.74 45.8194C123.967 43.0866 126.883 41.1076 130.488 39.8826C134.094 38.5633 137.965 37.9036 142.1 37.9036Z"/>
<path d="M244.741 2V54.866C247.498 48.458 251.316 44.0289 256.194 41.5788C261.178 39.1287 266.374 37.9036 271.783 37.9036C275.812 37.9036 279.153 38.3748 281.804 39.3171C284.561 40.2595 286.841 41.5788 288.644 43.275C290.659 45.1597 292.09 47.5156 292.939 50.3427C293.787 53.1697 294.211 56.9863 294.211 61.7923V99.5335C294.211 103.491 295.113 106.177 296.915 107.591C298.824 109.004 301.952 109.711 306.3 109.711V112.679C304.498 112.585 301.74 112.491 298.029 112.397C294.317 112.208 290.712 112.114 287.212 112.114C283.713 112.114 280.266 112.208 276.873 112.397C273.585 112.491 271.093 112.585 269.397 112.679V109.711C273.214 109.711 275.918 109.004 277.509 107.591C279.1 106.177 279.895 103.491 279.895 99.5335V58.6825C279.895 55.7612 279.63 53.0755 279.1 50.6254C278.57 48.1753 277.35 46.1963 275.441 44.6886C273.638 43.1808 270.828 42.4269 267.011 42.4269C260.542 42.4269 255.187 44.8299 250.945 49.6359C246.809 54.3477 244.741 60.473 244.741 68.0118V99.5335C244.741 103.491 245.537 106.177 247.127 107.591C248.718 109.004 251.422 109.711 255.24 109.711V112.679C253.543 112.585 250.998 112.491 247.604 112.397C244.317 112.208 240.924 112.114 237.424 112.114C233.925 112.114 230.319 112.208 226.607 112.397C222.896 112.491 220.139 112.585 218.336 112.679V109.711C222.684 109.711 225.759 109.004 227.562 107.591C229.471 106.177 230.425 103.491 230.425 99.5335V18.9623C230.425 14.7218 229.577 11.612 227.88 9.63306C226.183 7.55988 223.002 6.52329 218.336 6.52329V3.55489C221.729 3.83759 225.017 3.97894 228.198 3.97894C231.273 3.97894 234.19 3.83759 236.947 3.55489C239.81 3.17795 242.408 2.65965 244.741 2Z"/>
<path d="M373.887 16.418V40.0239H397.429V42.851H373.887V97.5545C373.887 101.984 374.788 105.093 376.591 106.884C378.394 108.674 380.886 109.57 384.067 109.57C387.248 109.57 390.005 108.439 392.338 106.177C394.671 103.821 396.686 99.9104 398.383 94.4448L401.564 95.1515C400.504 100.617 398.383 105.235 395.202 109.004C392.126 112.774 387.354 114.658 380.886 114.658C377.28 114.658 374.311 114.234 371.978 113.386C369.645 112.632 367.577 111.501 365.774 109.994C363.441 107.826 361.798 105.235 360.843 102.219C359.995 99.2036 359.571 95.1986 359.571 90.2042V42.851H344.3V40.0239H359.571V18.3969C362.222 18.3027 364.767 18.1142 367.206 17.8315C369.645 17.5488 371.872 17.0776 373.887 16.418Z"/>
<path d="M460.82 113.669C453.927 113.669 448.889 112.161 445.708 109.145C442.633 106.036 441.095 101.936 441.095 96.8478C441.095 92.8899 442.156 89.6388 444.277 87.0944C446.503 84.4558 449.314 82.3355 452.707 80.7335C456.101 79.0373 459.653 77.6238 463.365 76.493C467.182 75.2679 470.788 74.09 474.181 72.9591C477.575 71.8283 480.332 70.5561 482.453 69.1426C484.68 67.7291 485.793 65.9386 485.793 63.7712V55.0073C485.793 51.0494 485.104 48.0339 483.725 45.9607C482.453 43.8876 480.703 42.5212 478.476 41.8615C476.249 41.1076 473.757 40.7307 471 40.7307C468.349 40.7307 465.486 41.0605 462.41 41.7201C459.441 42.3798 457.055 43.7462 455.252 45.8194C457.267 46.1963 459.017 47.1387 460.501 48.6464C461.986 50.1542 462.728 52.086 462.728 54.4419C462.728 56.7978 461.88 58.6825 460.183 60.096C458.487 61.4153 456.313 62.075 453.661 62.075C450.586 62.075 448.306 61.2268 446.822 59.5306C445.443 57.7401 444.754 55.7612 444.754 53.5938C444.754 51.1437 445.443 49.1647 446.822 47.657C448.2 46.1492 449.95 44.7357 452.071 43.4164C454.51 41.9086 457.638 40.6364 461.456 39.5999C465.38 38.469 469.78 37.9036 474.658 37.9036C479.006 37.9036 482.718 38.3748 485.793 39.3171C488.868 40.1653 491.414 41.4374 493.428 43.1337C496.186 45.3953 497.988 48.1753 498.837 51.4735C499.685 54.6775 500.109 58.5411 500.109 63.0644V102.361C500.109 104.622 500.48 106.318 501.223 107.449C501.965 108.486 503.238 109.004 505.04 109.004C506.525 109.004 507.798 108.721 508.858 108.156C510.024 107.591 511.138 106.884 512.198 106.036L513.948 108.439C511.721 109.946 509.6 111.219 507.585 112.255C505.571 113.198 502.866 113.669 499.473 113.669C493.959 113.669 490.3 112.397 488.497 109.852C486.695 107.308 485.793 104.387 485.793 101.088C482.4 106.083 478.529 109.428 474.181 111.124C469.939 112.821 465.486 113.669 460.82 113.669ZM467.819 108.015C471 108.015 474.128 107.214 477.204 105.612C480.279 103.915 483.142 101.135 485.793 97.2718V69.5667C484.202 71.6398 481.71 73.289 478.317 74.514C475.03 75.7391 471.583 77.1055 467.978 78.6132C464.478 80.0268 461.456 82.0057 458.911 84.5501C456.366 87.0002 455.093 90.534 455.093 95.1515C455.093 99.4864 456.313 102.737 458.752 104.905C461.191 106.978 464.213 108.015 467.819 108.015Z"/>
<path d="M607.169 37.9036C611.199 37.9036 614.539 38.3748 617.19 39.3171C619.948 40.2595 622.228 41.5788 624.03 43.275C626.045 45.1597 627.477 47.5156 628.325 50.3427C629.174 53.1697 629.598 56.9863 629.598 61.7923V99.5335C629.598 103.491 630.499 106.177 632.302 107.591C634.211 109.004 637.339 109.711 641.687 109.711V112.679C639.884 112.585 637.127 112.491 633.415 112.397C629.704 112.208 626.098 112.114 622.599 112.114C619.099 112.114 615.653 112.208 612.259 112.397C608.972 112.491 606.48 112.585 604.783 112.679V109.711C608.601 109.711 611.305 109.004 612.896 107.591C614.486 106.177 615.282 103.491 615.282 99.5335V58.6825C615.282 55.7612 615.016 53.0755 614.486 50.6254C613.956 48.1753 612.737 46.1963 610.828 44.6886C609.025 43.1808 606.215 42.4269 602.397 42.4269C595.716 42.4269 590.308 44.9242 586.172 49.9186C582.143 54.8189 580.128 60.897 580.128 68.1531V99.5335C580.128 103.491 580.923 106.177 582.514 107.591C584.104 109.004 586.808 109.711 590.626 109.711V112.679C588.929 112.585 586.384 112.491 582.991 112.397C579.703 112.208 576.31 112.114 572.811 112.114C569.311 112.114 565.706 112.208 561.994 112.397C558.282 112.491 555.525 112.585 553.722 112.679V109.711C558.07 109.711 561.146 109.004 562.948 107.591C564.857 106.177 565.812 103.491 565.812 99.5335V55.29C565.812 51.0494 564.963 47.9397 563.267 45.9607C561.57 43.8876 558.388 42.851 553.722 42.851V39.8826C557.116 40.1653 560.403 40.3066 563.585 40.3066C566.66 40.3066 569.576 40.1653 572.333 39.8826C575.197 39.5056 577.795 38.9873 580.128 38.3277V55.0073C582.885 48.5993 586.703 44.1703 591.581 41.7201C596.565 39.1758 601.761 37.9036 607.169 37.9036Z"/>
<path d="M711.345 139.254C705.724 139.254 700.422 138.735 695.438 137.699C690.454 136.662 686.424 135.013 683.349 132.751C680.38 130.584 678.895 127.804 678.895 124.412C678.895 121.113 680.38 118.286 683.349 115.93C686.318 113.575 690.348 111.784 695.438 110.559L696.392 112.821C694.059 113.48 692.204 114.8 690.825 116.779C689.446 118.757 688.757 120.972 688.757 123.422C688.757 127.757 690.984 131.055 695.438 133.317C699.998 135.673 705.883 136.851 713.094 136.851C717.867 136.851 722.532 136.285 727.092 135.154C731.652 134.118 735.417 132.327 738.386 129.783C741.355 127.239 742.84 123.893 742.84 119.747C742.84 116.637 741.568 114.093 739.022 112.114C736.583 110.041 731.705 109.004 724.388 109.004H712.617C709.224 109.004 705.936 108.769 702.755 108.297C699.574 107.826 696.976 106.837 694.961 105.329C692.946 103.821 691.938 101.512 691.938 98.4026C691.938 95.1987 693.423 92.136 696.392 89.2147C699.362 86.1992 704.823 83.1365 712.776 80.0268L714.685 81.2989C711.08 82.9952 707.951 84.7385 705.3 86.529C702.649 88.2252 701.323 90.2513 701.323 92.6072C701.323 95.6227 703.869 97.1305 708.959 97.1305H728.842C735.417 97.1305 741.196 98.4498 746.181 101.088C751.271 103.633 753.816 107.873 753.816 113.81C753.816 118.239 752.225 122.386 749.044 126.249C745.862 130.113 741.09 133.223 734.728 135.578C728.471 138.029 720.677 139.254 711.345 139.254ZM712.14 82.5711C704.293 82.5711 697.665 80.7807 692.257 77.1997C686.954 73.6188 684.303 67.9647 684.303 60.2374C684.303 52.4158 686.954 46.7617 692.257 43.275C697.665 39.6941 704.293 37.9036 712.14 37.9036C719.987 37.9036 726.562 39.6941 731.865 43.275C737.273 46.7617 739.977 52.4158 739.977 60.2374C739.977 67.9647 737.273 73.6188 731.865 77.1997C726.562 80.7807 719.987 82.5711 712.14 82.5711ZM712.14 80.0268C716.17 80.0268 719.298 78.6132 721.525 75.7862C723.858 72.9591 725.025 67.7762 725.025 60.2374C725.025 52.6986 723.858 47.5156 721.525 44.6886C719.298 41.8615 716.17 40.448 712.14 40.448C708.216 40.448 705.088 41.8615 702.755 44.6886C700.422 47.5156 699.256 52.6986 699.256 60.2374C699.256 67.7762 700.422 72.9591 702.755 75.7862C705.088 78.6132 708.216 80.0268 712.14 80.0268ZM735.046 49.6359L732.183 48.6464C733.667 45.4424 736.212 42.6154 739.818 40.1653C743.423 37.7152 747.188 36.4901 751.112 36.4901C753.869 36.4901 756.096 37.1969 757.792 38.6104C759.489 39.9297 760.338 41.9557 760.338 44.6886C760.338 47.6099 759.436 49.683 757.633 50.9081C755.937 52.0389 754.187 52.6043 752.384 52.6043C750.793 52.6043 749.309 52.1331 747.93 51.1908C746.552 50.1542 745.756 48.5522 745.544 46.3848C745.332 44.2174 746.075 41.4374 747.771 38.045L749.839 38.469C745.385 39.9768 742.204 41.5788 740.295 43.275C738.386 44.877 736.636 46.9973 735.046 49.6359Z"/>
<path d="M820.871 113.669C813.979 113.669 808.941 112.161 805.76 109.145C802.685 106.036 801.147 101.936 801.147 96.8478C801.147 92.8899 802.208 89.6388 804.328 87.0944C806.555 84.4558 809.366 82.3355 812.759 80.7335C816.152 79.0373 819.705 77.6238 823.417 76.493C827.234 75.2679 830.84 74.09 834.233 72.9591C837.627 71.8283 840.384 70.5561 842.505 69.1426C844.732 67.7291 845.845 65.9386 845.845 63.7712V55.0073C845.845 51.0494 845.156 48.0339 843.777 45.9607C842.505 43.8876 840.755 42.5212 838.528 41.8615C836.301 41.1076 833.809 40.7307 831.052 40.7307C828.401 40.7307 825.537 41.0605 822.462 41.7201C819.493 42.3798 817.107 43.7462 815.304 45.8194C817.319 46.1963 819.069 47.1387 820.553 48.6464C822.038 50.1542 822.78 52.086 822.78 54.4419C822.78 56.7978 821.932 58.6825 820.235 60.096C818.538 61.4153 816.365 62.075 813.713 62.075C810.638 62.075 808.358 61.2268 806.873 59.5306C805.495 57.7401 804.806 55.7612 804.806 53.5938C804.806 51.1437 805.495 49.1647 806.873 47.657C808.252 46.1492 810.002 44.7357 812.123 43.4164C814.562 41.9086 817.69 40.6364 821.508 39.5999C825.431 38.469 829.832 37.9036 834.71 37.9036C839.058 37.9036 842.77 38.3748 845.845 39.3171C848.92 40.1653 851.465 41.4374 853.48 43.1337C856.237 45.3953 858.04 48.1753 858.889 51.4735C859.737 54.6775 860.161 58.5411 860.161 63.0644V102.361C860.161 104.622 860.532 106.318 861.275 107.449C862.017 108.486 863.289 109.004 865.092 109.004C866.577 109.004 867.849 108.721 868.91 108.156C870.076 107.591 871.19 106.884 872.25 106.036L874 108.439C871.773 109.946 869.652 111.219 867.637 112.255C865.622 113.198 862.918 113.669 859.525 113.669C854.01 113.669 850.352 112.397 848.549 109.852C846.746 107.308 845.845 104.387 845.845 101.088C842.452 106.083 838.581 109.428 834.233 111.124C829.991 112.821 825.537 113.669 820.871 113.669ZM827.87 108.015C831.052 108.015 834.18 107.214 837.255 105.612C840.331 103.915 843.194 101.135 845.845 97.2718V69.5667C844.254 71.6398 841.762 73.289 838.369 74.514C835.081 75.7391 831.635 77.1055 828.029 78.6132C824.53 80.0268 821.508 82.0057 818.963 84.5501C816.417 87.0002 815.145 90.534 815.145 95.1515C815.145 99.4864 816.365 102.737 818.804 104.905C821.243 106.978 824.265 108.015 827.87 108.015Z"/>
<path d="M20.7244 260.011C13.8315 260.011 8.79431 258.503 5.61296 255.487C2.53765 252.377 1 248.278 1 243.19C1 239.232 2.06045 235.981 4.18135 233.436C6.4083 230.798 9.21849 228.677 12.6119 227.075C16.0054 225.379 19.5579 223.966 23.2695 222.835C27.0871 221.61 30.6926 220.432 34.0861 219.301C37.4795 218.17 40.2367 216.898 42.3576 215.484C44.5845 214.071 45.698 212.28 45.698 210.113V201.349C45.698 197.391 45.0087 194.376 43.6301 192.302C42.3576 190.229 40.6078 188.863 38.3809 188.203C36.1539 187.449 33.6619 187.072 30.9047 187.072C28.2536 187.072 25.3904 187.402 22.3151 188.062C19.3458 188.722 16.9598 190.088 15.157 192.161C17.1719 192.538 18.9216 193.48 20.4062 194.988C21.8909 196.496 22.6332 198.428 22.6332 200.784C22.6332 203.14 21.7848 205.024 20.0881 206.438C18.3914 207.757 16.2175 208.417 13.5663 208.417C10.491 208.417 8.21106 207.569 6.72643 205.872C5.34785 204.082 4.65855 202.103 4.65855 199.936C4.65855 197.485 5.34785 195.507 6.72643 193.999C8.10502 192.491 9.85476 191.077 11.9757 189.758C14.4147 188.25 17.543 186.978 21.3606 185.942C25.2843 184.811 29.6852 184.245 34.5633 184.245C38.9111 184.245 42.6227 184.717 45.698 185.659C48.7733 186.507 51.3184 187.779 53.3332 189.475C56.0904 191.737 57.8932 194.517 58.7415 197.815C59.5899 201.019 60.0141 204.883 60.0141 209.406V248.702C60.0141 250.964 60.3852 252.66 61.1275 253.791C61.8699 254.828 63.1424 255.346 64.9452 255.346C66.4298 255.346 67.7023 255.063 68.7628 254.498C69.9293 253.932 71.0427 253.226 72.1032 252.377L73.8529 254.78C71.626 256.288 69.5051 257.56 67.4902 258.597C65.4754 259.539 62.7712 260.011 59.3778 260.011C53.8634 260.011 50.2049 258.738 48.4021 256.194C46.5994 253.65 45.698 250.728 45.698 247.43C42.3045 252.425 38.4339 255.77 34.0861 257.466C29.8443 259.162 25.3904 260.011 20.7244 260.011ZM27.7234 254.356C30.9047 254.356 34.033 253.555 37.1083 251.953C40.1836 250.257 43.0469 247.477 45.698 243.614V215.908C44.1073 217.982 41.6152 219.631 38.2218 220.856C34.9344 222.081 31.4879 223.447 27.8824 224.955C24.3829 226.369 21.3606 228.347 18.8156 230.892C16.2705 233.342 14.9979 236.876 14.9979 241.493C14.9979 245.828 16.2175 249.079 18.6565 251.247C21.0955 253.32 24.1178 254.356 27.7234 254.356Z"/>
<path d="M138.919 148.2V245.875C138.919 249.833 139.82 252.519 141.623 253.932C143.532 255.346 146.66 256.053 151.008 256.053V259.021C149.205 258.927 146.448 258.833 142.737 258.738C139.131 258.55 135.473 258.456 131.761 258.456C128.155 258.456 124.497 258.55 120.785 258.738C117.074 258.833 114.317 258.927 112.514 259.021V256.053C116.862 256.053 119.937 255.346 121.74 253.932C123.649 252.519 124.603 249.833 124.603 245.875V165.163C124.603 160.922 123.755 157.812 122.058 155.833C120.361 153.76 117.18 152.724 112.514 152.724V149.755C115.907 150.038 119.195 150.179 122.376 150.179C125.451 150.179 128.368 150.038 131.125 149.755C133.988 149.378 136.586 148.86 138.919 148.2Z"/>
<path d="M212.27 150.886C215.027 150.886 217.413 151.781 219.428 153.572C221.443 155.362 222.451 157.483 222.451 159.933C222.451 162.383 221.443 164.503 219.428 166.294C217.413 168.084 215.027 168.979 212.27 168.979C209.513 168.979 207.127 168.084 205.112 166.294C203.097 164.503 202.09 162.383 202.09 159.933C202.09 157.483 203.097 155.362 205.112 153.572C207.127 151.781 209.513 150.886 212.27 150.886ZM220.542 184.669V245.875C220.542 249.833 221.443 252.519 223.246 253.932C225.155 255.346 228.283 256.053 232.631 256.053V259.021C230.828 258.927 228.071 258.833 224.359 258.738C220.754 258.55 217.095 258.456 213.384 258.456C209.778 258.456 206.12 258.55 202.408 258.738C198.697 258.833 195.939 258.927 194.137 259.021V256.053C198.484 256.053 201.56 255.346 203.363 253.932C205.271 252.519 206.226 249.833 206.226 245.875V201.632C206.226 197.391 205.377 194.281 203.681 192.302C201.984 190.229 198.803 189.193 194.137 189.193V186.224C197.53 186.507 200.817 186.648 203.999 186.648C207.074 186.648 209.99 186.507 212.747 186.224C215.611 185.847 218.209 185.329 220.542 184.669Z"/>
<path d="M314.387 184.245C323.719 184.245 330.983 186.79 336.179 191.878C341.481 196.873 344.132 204.694 344.132 215.343H287.981L287.822 212.657H328.862C329.074 208.04 328.65 203.799 327.589 199.936C326.529 195.978 324.832 192.821 322.499 190.465C320.272 188.109 317.356 186.931 313.75 186.931C308.872 186.931 304.525 189.099 300.707 193.433C296.995 197.768 294.768 204.647 294.026 214.071L294.503 214.636C294.291 216.05 294.132 217.605 294.026 219.301C293.92 220.997 293.867 222.693 293.867 224.39C293.867 230.798 295.033 236.31 297.366 240.928C299.699 245.545 302.722 249.079 306.433 251.529C310.251 253.885 314.175 255.063 318.204 255.063C322.976 255.063 327.377 254.027 331.407 251.953C335.437 249.88 338.83 246.205 341.587 240.928L344.769 242.059C343.602 245.168 341.693 248.184 339.042 251.105C336.391 254.027 333.051 256.43 329.021 258.314C324.991 260.105 320.325 261 315.023 261C307.388 261 300.813 259.445 295.299 256.335C289.89 253.226 285.702 248.938 282.732 243.472C279.869 237.912 278.437 231.551 278.437 224.39C278.437 216.097 279.922 208.982 282.891 203.045C285.861 197.014 290.049 192.397 295.458 189.193C300.866 185.895 307.176 184.245 314.387 184.245Z"/>
<path d="M444.641 184.245C448.67 184.245 452.011 184.717 454.662 185.659C457.419 186.601 459.699 187.921 461.502 189.617C463.517 191.502 464.948 193.857 465.797 196.684C466.645 199.512 467.069 203.328 467.069 208.134V245.875C467.069 249.833 467.971 252.519 469.773 253.932C471.682 255.346 474.81 256.053 479.158 256.053V259.021C477.356 258.927 474.598 258.833 470.887 258.738C467.175 258.55 463.57 258.456 460.07 258.456C456.571 258.456 453.124 258.55 449.731 258.738C446.443 258.833 443.951 258.927 442.255 259.021V256.053C446.072 256.053 448.776 255.346 450.367 253.932C451.958 252.519 452.753 249.833 452.753 245.875V205.024C452.753 202.103 452.488 199.417 451.958 196.967C451.428 194.517 450.208 192.538 448.299 191.03C446.496 189.523 443.686 188.769 439.869 188.769C433.188 188.769 427.779 191.266 423.644 196.26C419.614 201.161 417.599 207.239 417.599 214.495V245.875C417.599 249.833 418.395 252.519 419.985 253.932C421.576 255.346 424.28 256.053 428.098 256.053V259.021C426.401 258.927 423.856 258.833 420.462 258.738C417.175 258.55 413.782 258.456 410.282 258.456C406.783 258.456 403.177 258.55 399.465 258.738C395.754 258.833 392.997 258.927 391.194 259.021V256.053C395.542 256.053 398.617 255.346 400.42 253.932C402.329 252.519 403.283 249.833 403.283 245.875V201.632C403.283 197.391 402.435 194.281 400.738 192.302C399.041 190.229 395.86 189.193 391.194 189.193V186.224C394.587 186.507 397.875 186.648 401.056 186.648C404.131 186.648 407.048 186.507 409.805 186.224C412.668 185.847 415.266 185.329 417.599 184.669V201.349C420.356 194.941 424.174 190.512 429.052 188.062C434.036 185.518 439.232 184.245 444.641 184.245Z"/>
</mask>
<path d="M20.7244 113.669C13.8315 113.669 8.79431 112.161 5.61296 109.145C2.53765 106.036 1 101.936 1 96.8478C1 92.8899 2.06045 89.6388 4.18135 87.0944C6.4083 84.4558 9.21849 82.3355 12.6119 80.7335C16.0054 79.0373 19.5579 77.6238 23.2695 76.493C27.0871 75.2679 30.6926 74.09 34.0861 72.9591C37.4795 71.8283 40.2367 70.5561 42.3576 69.1426C44.5845 67.7291 45.698 65.9386 45.698 63.7712V55.0073C45.698 51.0494 45.0087 48.0339 43.6301 45.9607C42.3576 43.8876 40.6078 42.5212 38.3809 41.8615C36.1539 41.1076 33.6619 40.7307 30.9047 40.7307C28.2536 40.7307 25.3904 41.0605 22.3151 41.7201C19.3458 42.3798 16.9598 43.7462 15.157 45.8194C17.1719 46.1963 18.9216 47.1387 20.4062 48.6464C21.8909 50.1542 22.6332 52.086 22.6332 54.4419C22.6332 56.7978 21.7848 58.6825 20.0881 60.096C18.3914 61.4153 16.2175 62.075 13.5663 62.075C10.491 62.075 8.21106 61.2268 6.72643 59.5306C5.34785 57.7401 4.65855 55.7612 4.65855 53.5938C4.65855 51.1437 5.34785 49.1647 6.72643 47.657C8.10502 46.1492 9.85476 44.7357 11.9757 43.4164C14.4147 41.9086 17.543 40.6364 21.3606 39.5999C25.2843 38.469 29.6852 37.9036 34.5633 37.9036C38.9111 37.9036 42.6227 38.3748 45.698 39.3171C48.7733 40.1653 51.3184 41.4374 53.3332 43.1337C56.0904 45.3953 57.8932 48.1753 58.7415 51.4735C59.5899 54.6775 60.0141 58.5411 60.0141 63.0644V102.361C60.0141 104.622 60.3852 106.318 61.1275 107.449C61.8699 108.486 63.1424 109.004 64.9452 109.004C66.4298 109.004 67.7023 108.721 68.7628 108.156C69.9293 107.591 71.0427 106.884 72.1032 106.036L73.8529 108.439C71.626 109.946 69.5051 111.219 67.4902 112.255C65.4754 113.198 62.7712 113.669 59.3778 113.669C53.8634 113.669 50.2049 112.397 48.4021 109.852C46.5994 107.308 45.698 104.387 45.698 101.088C42.3045 106.083 38.4339 109.428 34.0861 111.124C29.8443 112.821 25.3904 113.669 20.7244 113.669ZM27.7234 108.015C30.9047 108.015 34.033 107.214 37.1083 105.612C40.1836 103.915 43.0469 101.135 45.698 97.2718V69.5667C44.1073 71.6398 41.6152 73.289 38.2218 74.514C34.9344 75.7391 31.4879 77.1055 27.8824 78.6132C24.3829 80.0268 21.3606 82.0057 18.8156 84.5501C16.2705 87.0002 14.9979 90.534 14.9979 95.1515C14.9979 99.4864 16.2175 102.737 18.6565 104.905C21.0955 106.978 24.1178 108.015 27.7234 108.015Z" stroke="#F0F0F0" stroke-opacity="0.29" stroke-width="2" mask="url(#path-1-outside-1)"/>
<path d="M142.1 37.9036C146.342 37.9036 149.948 38.5161 152.917 39.7412C155.886 40.9663 158.06 42.0971 159.439 43.1337C162.938 45.678 165.059 43.9818 165.801 38.045H169.46C169.248 40.6836 169.089 43.8404 168.983 47.5156C168.877 51.0966 168.824 55.9497 168.824 62.075H165.165C164.529 58.5883 163.415 55.1958 161.825 51.8976C160.34 48.5993 158.113 45.9136 155.144 43.8404C152.175 41.673 148.304 40.5893 143.532 40.5893C139.82 40.5893 136.692 41.5317 134.147 43.4164C131.708 45.2069 130.488 47.8926 130.488 51.4735C130.488 54.3006 131.443 56.7507 133.352 58.8238C135.26 60.8028 137.753 62.6875 140.828 64.478C143.903 66.1742 147.244 68.0589 150.849 70.1321C156.894 73.6188 162.037 77.1526 166.279 80.7335C170.52 84.3145 172.641 89.0262 172.641 94.8688C172.641 99.2037 171.369 102.832 168.824 105.753C166.279 108.674 162.938 110.889 158.802 112.397C154.773 113.904 150.319 114.658 145.441 114.658C143.108 114.658 140.881 114.47 138.76 114.093C136.745 113.81 134.783 113.339 132.874 112.679C131.814 112.208 130.701 111.643 129.534 110.983C128.474 110.323 127.413 109.617 126.353 108.863C125.292 108.109 124.338 108.156 123.489 109.004C122.641 109.758 122.005 111.313 121.581 113.669H117.922C118.134 110.653 118.293 106.978 118.399 102.643C118.505 98.3084 118.558 92.5601 118.558 85.3982H122.217C122.959 90.6754 124.02 95.2929 125.398 99.2508C126.777 103.209 128.951 106.318 131.92 108.58C134.889 110.747 139.025 111.831 144.327 111.831C147.509 111.831 150.637 110.842 153.712 108.863C156.894 106.884 158.484 103.397 158.484 98.4026C158.484 94.2563 156.788 90.8638 153.394 88.2252C150.001 85.5866 145.706 82.8067 140.51 79.8854C136.692 77.718 133.087 75.5506 129.693 73.3832C126.406 71.2158 123.702 68.7657 121.581 66.0328C119.566 63.3 118.558 60.0018 118.558 56.1381C118.558 51.8976 119.619 48.458 121.74 45.8194C123.967 43.0866 126.883 41.1076 130.488 39.8826C134.094 38.5633 137.965 37.9036 142.1 37.9036Z" stroke="#F0F0F0" stroke-opacity="0.29" stroke-width="2" mask="url(#path-1-outside-1)"/>
<path d="M244.741 2V54.866C247.498 48.458 251.316 44.0289 256.194 41.5788C261.178 39.1287 266.374 37.9036 271.783 37.9036C275.812 37.9036 279.153 38.3748 281.804 39.3171C284.561 40.2595 286.841 41.5788 288.644 43.275C290.659 45.1597 292.09 47.5156 292.939 50.3427C293.787 53.1697 294.211 56.9863 294.211 61.7923V99.5335C294.211 103.491 295.113 106.177 296.915 107.591C298.824 109.004 301.952 109.711 306.3 109.711V112.679C304.498 112.585 301.74 112.491 298.029 112.397C294.317 112.208 290.712 112.114 287.212 112.114C283.713 112.114 280.266 112.208 276.873 112.397C273.585 112.491 271.093 112.585 269.397 112.679V109.711C273.214 109.711 275.918 109.004 277.509 107.591C279.1 106.177 279.895 103.491 279.895 99.5335V58.6825C279.895 55.7612 279.63 53.0755 279.1 50.6254C278.57 48.1753 277.35 46.1963 275.441 44.6886C273.638 43.1808 270.828 42.4269 267.011 42.4269C260.542 42.4269 255.187 44.8299 250.945 49.6359C246.809 54.3477 244.741 60.473 244.741 68.0118V99.5335C244.741 103.491 245.537 106.177 247.127 107.591C248.718 109.004 251.422 109.711 255.24 109.711V112.679C253.543 112.585 250.998 112.491 247.604 112.397C244.317 112.208 240.924 112.114 237.424 112.114C233.925 112.114 230.319 112.208 226.607 112.397C222.896 112.491 220.139 112.585 218.336 112.679V109.711C222.684 109.711 225.759 109.004 227.562 107.591C229.471 106.177 230.425 103.491 230.425 99.5335V18.9623C230.425 14.7218 229.577 11.612 227.88 9.63306C226.183 7.55988 223.002 6.52329 218.336 6.52329V3.55489C221.729 3.83759 225.017 3.97894 228.198 3.97894C231.273 3.97894 234.19 3.83759 236.947 3.55489C239.81 3.17795 242.408 2.65965 244.741 2Z" stroke="#F0F0F0" stroke-opacity="0.29" stroke-width="2" mask="url(#path-1-outside-1)"/>
<path d="M373.887 16.418V40.0239H397.429V42.851H373.887V97.5545C373.887 101.984 374.788 105.093 376.591 106.884C378.394 108.674 380.886 109.57 384.067 109.57C387.248 109.57 390.005 108.439 392.338 106.177C394.671 103.821 396.686 99.9104 398.383 94.4448L401.564 95.1515C400.504 100.617 398.383 105.235 395.202 109.004C392.126 112.774 387.354 114.658 380.886 114.658C377.28 114.658 374.311 114.234 371.978 113.386C369.645 112.632 367.577 111.501 365.774 109.994C363.441 107.826 361.798 105.235 360.843 102.219C359.995 99.2036 359.571 95.1986 359.571 90.2042V42.851H344.3V40.0239H359.571V18.3969C362.222 18.3027 364.767 18.1142 367.206 17.8315C369.645 17.5488 371.872 17.0776 373.887 16.418Z" stroke="#F0F0F0" stroke-opacity="0.29" stroke-width="2" mask="url(#path-1-outside-1)"/>
<path d="M460.82 113.669C453.927 113.669 448.889 112.161 445.708 109.145C442.633 106.036 441.095 101.936 441.095 96.8478C441.095 92.8899 442.156 89.6388 444.277 87.0944C446.503 84.4558 449.314 82.3355 452.707 80.7335C456.101 79.0373 459.653 77.6238 463.365 76.493C467.182 75.2679 470.788 74.09 474.181 72.9591C477.575 71.8283 480.332 70.5561 482.453 69.1426C484.68 67.7291 485.793 65.9386 485.793 63.7712V55.0073C485.793 51.0494 485.104 48.0339 483.725 45.9607C482.453 43.8876 480.703 42.5212 478.476 41.8615C476.249 41.1076 473.757 40.7307 471 40.7307C468.349 40.7307 465.486 41.0605 462.41 41.7201C459.441 42.3798 457.055 43.7462 455.252 45.8194C457.267 46.1963 459.017 47.1387 460.501 48.6464C461.986 50.1542 462.728 52.086 462.728 54.4419C462.728 56.7978 461.88 58.6825 460.183 60.096C458.487 61.4153 456.313 62.075 453.661 62.075C450.586 62.075 448.306 61.2268 446.822 59.5306C445.443 57.7401 444.754 55.7612 444.754 53.5938C444.754 51.1437 445.443 49.1647 446.822 47.657C448.2 46.1492 449.95 44.7357 452.071 43.4164C454.51 41.9086 457.638 40.6364 461.456 39.5999C465.38 38.469 469.78 37.9036 474.658 37.9036C479.006 37.9036 482.718 38.3748 485.793 39.3171C488.868 40.1653 491.414 41.4374 493.428 43.1337C496.186 45.3953 497.988 48.1753 498.837 51.4735C499.685 54.6775 500.109 58.5411 500.109 63.0644V102.361C500.109 104.622 500.48 106.318 501.223 107.449C501.965 108.486 503.238 109.004 505.04 109.004C506.525 109.004 507.798 108.721 508.858 108.156C510.024 107.591 511.138 106.884 512.198 106.036L513.948 108.439C511.721 109.946 509.6 111.219 507.585 112.255C505.571 113.198 502.866 113.669 499.473 113.669C493.959 113.669 490.3 112.397 488.497 109.852C486.695 107.308 485.793 104.387 485.793 101.088C482.4 106.083 478.529 109.428 474.181 111.124C469.939 112.821 465.486 113.669 460.82 113.669ZM467.819 108.015C471 108.015 474.128 107.214 477.204 105.612C480.279 103.915 483.142 101.135 485.793 97.2718V69.5667C484.202 71.6398 481.71 73.289 478.317 74.514C475.03 75.7391 471.583 77.1055 467.978 78.6132C464.478 80.0268 461.456 82.0057 458.911 84.5501C456.366 87.0002 455.093 90.534 455.093 95.1515C455.093 99.4864 456.313 102.737 458.752 104.905C461.191 106.978 464.213 108.015 467.819 108.015Z" stroke="#F0F0F0" stroke-opacity="0.29" stroke-width="2" mask="url(#path-1-outside-1)"/>
<path d="M607.169 37.9036C611.199 37.9036 614.539 38.3748 617.19 39.3171C619.948 40.2595 622.228 41.5788 624.03 43.275C626.045 45.1597 627.477 47.5156 628.325 50.3427C629.174 53.1697 629.598 56.9863 629.598 61.7923V99.5335C629.598 103.491 630.499 106.177 632.302 107.591C634.211 109.004 637.339 109.711 641.687 109.711V112.679C639.884 112.585 637.127 112.491 633.415 112.397C629.704 112.208 626.098 112.114 622.599 112.114C619.099 112.114 615.653 112.208 612.259 112.397C608.972 112.491 606.48 112.585 604.783 112.679V109.711C608.601 109.711 611.305 109.004 612.896 107.591C614.486 106.177 615.282 103.491 615.282 99.5335V58.6825C615.282 55.7612 615.016 53.0755 614.486 50.6254C613.956 48.1753 612.737 46.1963 610.828 44.6886C609.025 43.1808 606.215 42.4269 602.397 42.4269C595.716 42.4269 590.308 44.9242 586.172 49.9186C582.143 54.8189 580.128 60.897 580.128 68.1531V99.5335C580.128 103.491 580.923 106.177 582.514 107.591C584.104 109.004 586.808 109.711 590.626 109.711V112.679C588.929 112.585 586.384 112.491 582.991 112.397C579.703 112.208 576.31 112.114 572.811 112.114C569.311 112.114 565.706 112.208 561.994 112.397C558.282 112.491 555.525 112.585 553.722 112.679V109.711C558.07 109.711 561.146 109.004 562.948 107.591C564.857 106.177 565.812 103.491 565.812 99.5335V55.29C565.812 51.0494 564.963 47.9397 563.267 45.9607C561.57 43.8876 558.388 42.851 553.722 42.851V39.8826C557.116 40.1653 560.403 40.3066 563.585 40.3066C566.66 40.3066 569.576 40.1653 572.333 39.8826C575.197 39.5056 577.795 38.9873 580.128 38.3277V55.0073C582.885 48.5993 586.703 44.1703 591.581 41.7201C596.565 39.1758 601.761 37.9036 607.169 37.9036Z" stroke="#F0F0F0" stroke-opacity="0.29" stroke-width="2" mask="url(#path-1-outside-1)"/>
<path d="M711.345 139.254C705.724 139.254 700.422 138.735 695.438 137.699C690.454 136.662 686.424 135.013 683.349 132.751C680.38 130.584 678.895 127.804 678.895 124.412C678.895 121.113 680.38 118.286 683.349 115.93C686.318 113.575 690.348 111.784 695.438 110.559L696.392 112.821C694.059 113.48 692.204 114.8 690.825 116.779C689.446 118.757 688.757 120.972 688.757 123.422C688.757 127.757 690.984 131.055 695.438 133.317C699.998 135.673 705.883 136.851 713.094 136.851C717.867 136.851 722.532 136.285 727.092 135.154C731.652 134.118 735.417 132.327 738.386 129.783C741.355 127.239 742.84 123.893 742.84 119.747C742.84 116.637 741.568 114.093 739.022 112.114C736.583 110.041 731.705 109.004 724.388 109.004H712.617C709.224 109.004 705.936 108.769 702.755 108.297C699.574 107.826 696.976 106.837 694.961 105.329C692.946 103.821 691.938 101.512 691.938 98.4026C691.938 95.1987 693.423 92.136 696.392 89.2147C699.362 86.1992 704.823 83.1365 712.776 80.0268L714.685 81.2989C711.08 82.9952 707.951 84.7385 705.3 86.529C702.649 88.2252 701.323 90.2513 701.323 92.6072C701.323 95.6227 703.869 97.1305 708.959 97.1305H728.842C735.417 97.1305 741.196 98.4498 746.181 101.088C751.271 103.633 753.816 107.873 753.816 113.81C753.816 118.239 752.225 122.386 749.044 126.249C745.862 130.113 741.09 133.223 734.728 135.578C728.471 138.029 720.677 139.254 711.345 139.254ZM712.14 82.5711C704.293 82.5711 697.665 80.7807 692.257 77.1997C686.954 73.6188 684.303 67.9647 684.303 60.2374C684.303 52.4158 686.954 46.7617 692.257 43.275C697.665 39.6941 704.293 37.9036 712.14 37.9036C719.987 37.9036 726.562 39.6941 731.865 43.275C737.273 46.7617 739.977 52.4158 739.977 60.2374C739.977 67.9647 737.273 73.6188 731.865 77.1997C726.562 80.7807 719.987 82.5711 712.14 82.5711ZM712.14 80.0268C716.17 80.0268 719.298 78.6132 721.525 75.7862C723.858 72.9591 725.025 67.7762 725.025 60.2374C725.025 52.6986 723.858 47.5156 721.525 44.6886C719.298 41.8615 716.17 40.448 712.14 40.448C708.216 40.448 705.088 41.8615 702.755 44.6886C700.422 47.5156 699.256 52.6986 699.256 60.2374C699.256 67.7762 700.422 72.9591 702.755 75.7862C705.088 78.6132 708.216 80.0268 712.14 80.0268ZM735.046 49.6359L732.183 48.6464C733.667 45.4424 736.212 42.6154 739.818 40.1653C743.423 37.7152 747.188 36.4901 751.112 36.4901C753.869 36.4901 756.096 37.1969 757.792 38.6104C759.489 39.9297 760.338 41.9557 760.338 44.6886C760.338 47.6099 759.436 49.683 757.633 50.9081C755.937 52.0389 754.187 52.6043 752.384 52.6043C750.793 52.6043 749.309 52.1331 747.93 51.1908C746.552 50.1542 745.756 48.5522 745.544 46.3848C745.332 44.2174 746.075 41.4374 747.771 38.045L749.839 38.469C745.385 39.9768 742.204 41.5788 740.295 43.275C738.386 44.877 736.636 46.9973 735.046 49.6359Z" stroke="#F0F0F0" stroke-opacity="0.29" stroke-width="2" mask="url(#path-1-outside-1)"/>
<path d="M820.871 113.669C813.979 113.669 808.941 112.161 805.76 109.145C802.685 106.036 801.147 101.936 801.147 96.8478C801.147 92.8899 802.208 89.6388 804.328 87.0944C806.555 84.4558 809.366 82.3355 812.759 80.7335C816.152 79.0373 819.705 77.6238 823.417 76.493C827.234 75.2679 830.84 74.09 834.233 72.9591C837.627 71.8283 840.384 70.5561 842.505 69.1426C844.732 67.7291 845.845 65.9386 845.845 63.7712V55.0073C845.845 51.0494 845.156 48.0339 843.777 45.9607C842.505 43.8876 840.755 42.5212 838.528 41.8615C836.301 41.1076 833.809 40.7307 831.052 40.7307C828.401 40.7307 825.537 41.0605 822.462 41.7201C819.493 42.3798 817.107 43.7462 815.304 45.8194C817.319 46.1963 819.069 47.1387 820.553 48.6464C822.038 50.1542 822.78 52.086 822.78 54.4419C822.78 56.7978 821.932 58.6825 820.235 60.096C818.538 61.4153 816.365 62.075 813.713 62.075C810.638 62.075 808.358 61.2268 806.873 59.5306C805.495 57.7401 804.806 55.7612 804.806 53.5938C804.806 51.1437 805.495 49.1647 806.873 47.657C808.252 46.1492 810.002 44.7357 812.123 43.4164C814.562 41.9086 817.69 40.6364 821.508 39.5999C825.431 38.469 829.832 37.9036 834.71 37.9036C839.058 37.9036 842.77 38.3748 845.845 39.3171C848.92 40.1653 851.465 41.4374 853.48 43.1337C856.237 45.3953 858.04 48.1753 858.889 51.4735C859.737 54.6775 860.161 58.5411 860.161 63.0644V102.361C860.161 104.622 860.532 106.318 861.275 107.449C862.017 108.486 863.289 109.004 865.092 109.004C866.577 109.004 867.849 108.721 868.91 108.156C870.076 107.591 871.19 106.884 872.25 106.036L874 108.439C871.773 109.946 869.652 111.219 867.637 112.255C865.622 113.198 862.918 113.669 859.525 113.669C854.01 113.669 850.352 112.397 848.549 109.852C846.746 107.308 845.845 104.387 845.845 101.088C842.452 106.083 838.581 109.428 834.233 111.124C829.991 112.821 825.537 113.669 820.871 113.669ZM827.87 108.015C831.052 108.015 834.18 107.214 837.255 105.612C840.331 103.915 843.194 101.135 845.845 97.2718V69.5667C844.254 71.6398 841.762 73.289 838.369 74.514C835.081 75.7391 831.635 77.1055 828.029 78.6132C824.53 80.0268 821.508 82.0057 818.963 84.5501C816.417 87.0002 815.145 90.534 815.145 95.1515C815.145 99.4864 816.365 102.737 818.804 104.905C821.243 106.978 824.265 108.015 827.87 108.015Z" stroke="#F0F0F0" stroke-opacity="0.29" stroke-width="2" mask="url(#path-1-outside-1)"/>
<path d="M20.7244 260.011C13.8315 260.011 8.79431 258.503 5.61296 255.487C2.53765 252.377 1 248.278 1 243.19C1 239.232 2.06045 235.981 4.18135 233.436C6.4083 230.798 9.21849 228.677 12.6119 227.075C16.0054 225.379 19.5579 223.966 23.2695 222.835C27.0871 221.61 30.6926 220.432 34.0861 219.301C37.4795 218.17 40.2367 216.898 42.3576 215.484C44.5845 214.071 45.698 212.28 45.698 210.113V201.349C45.698 197.391 45.0087 194.376 43.6301 192.302C42.3576 190.229 40.6078 188.863 38.3809 188.203C36.1539 187.449 33.6619 187.072 30.9047 187.072C28.2536 187.072 25.3904 187.402 22.3151 188.062C19.3458 188.722 16.9598 190.088 15.157 192.161C17.1719 192.538 18.9216 193.48 20.4062 194.988C21.8909 196.496 22.6332 198.428 22.6332 200.784C22.6332 203.14 21.7848 205.024 20.0881 206.438C18.3914 207.757 16.2175 208.417 13.5663 208.417C10.491 208.417 8.21106 207.569 6.72643 205.872C5.34785 204.082 4.65855 202.103 4.65855 199.936C4.65855 197.485 5.34785 195.507 6.72643 193.999C8.10502 192.491 9.85476 191.077 11.9757 189.758C14.4147 188.25 17.543 186.978 21.3606 185.942C25.2843 184.811 29.6852 184.245 34.5633 184.245C38.9111 184.245 42.6227 184.717 45.698 185.659C48.7733 186.507 51.3184 187.779 53.3332 189.475C56.0904 191.737 57.8932 194.517 58.7415 197.815C59.5899 201.019 60.0141 204.883 60.0141 209.406V248.702C60.0141 250.964 60.3852 252.66 61.1275 253.791C61.8699 254.828 63.1424 255.346 64.9452 255.346C66.4298 255.346 67.7023 255.063 68.7628 254.498C69.9293 253.932 71.0427 253.226 72.1032 252.377L73.8529 254.78C71.626 256.288 69.5051 257.56 67.4902 258.597C65.4754 259.539 62.7712 260.011 59.3778 260.011C53.8634 260.011 50.2049 258.738 48.4021 256.194C46.5994 253.65 45.698 250.728 45.698 247.43C42.3045 252.425 38.4339 255.77 34.0861 257.466C29.8443 259.162 25.3904 260.011 20.7244 260.011ZM27.7234 254.356C30.9047 254.356 34.033 253.555 37.1083 251.953C40.1836 250.257 43.0469 247.477 45.698 243.614V215.908C44.1073 217.982 41.6152 219.631 38.2218 220.856C34.9344 222.081 31.4879 223.447 27.8824 224.955C24.3829 226.369 21.3606 228.347 18.8156 230.892C16.2705 233.342 14.9979 236.876 14.9979 241.493C14.9979 245.828 16.2175 249.079 18.6565 251.247C21.0955 253.32 24.1178 254.356 27.7234 254.356Z" stroke="#F0F0F0" stroke-opacity="0.29" stroke-width="2" mask="url(#path-1-outside-1)"/>
<path d="M138.919 148.2V245.875C138.919 249.833 139.82 252.519 141.623 253.932C143.532 255.346 146.66 256.053 151.008 256.053V259.021C149.205 258.927 146.448 258.833 142.737 258.738C139.131 258.55 135.473 258.456 131.761 258.456C128.155 258.456 124.497 258.55 120.785 258.738C117.074 258.833 114.317 258.927 112.514 259.021V256.053C116.862 256.053 119.937 255.346 121.74 253.932C123.649 252.519 124.603 249.833 124.603 245.875V165.163C124.603 160.922 123.755 157.812 122.058 155.833C120.361 153.76 117.18 152.724 112.514 152.724V149.755C115.907 150.038 119.195 150.179 122.376 150.179C125.451 150.179 128.368 150.038 131.125 149.755C133.988 149.378 136.586 148.86 138.919 148.2Z" stroke="#F0F0F0" stroke-opacity="0.29" stroke-width="2" mask="url(#path-1-outside-1)"/>
<path d="M212.27 150.886C215.027 150.886 217.413 151.781 219.428 153.572C221.443 155.362 222.451 157.483 222.451 159.933C222.451 162.383 221.443 164.503 219.428 166.294C217.413 168.084 215.027 168.979 212.27 168.979C209.513 168.979 207.127 168.084 205.112 166.294C203.097 164.503 202.09 162.383 202.09 159.933C202.09 157.483 203.097 155.362 205.112 153.572C207.127 151.781 209.513 150.886 212.27 150.886ZM220.542 184.669V245.875C220.542 249.833 221.443 252.519 223.246 253.932C225.155 255.346 228.283 256.053 232.631 256.053V259.021C230.828 258.927 228.071 258.833 224.359 258.738C220.754 258.55 217.095 258.456 213.384 258.456C209.778 258.456 206.12 258.55 202.408 258.738C198.697 258.833 195.939 258.927 194.137 259.021V256.053C198.484 256.053 201.56 255.346 203.363 253.932C205.271 252.519 206.226 249.833 206.226 245.875V201.632C206.226 197.391 205.377 194.281 203.681 192.302C201.984 190.229 198.803 189.193 194.137 189.193V186.224C197.53 186.507 200.817 186.648 203.999 186.648C207.074 186.648 209.99 186.507 212.747 186.224C215.611 185.847 218.209 185.329 220.542 184.669Z" stroke="#F0F0F0" stroke-opacity="0.29" stroke-width="2" mask="url(#path-1-outside-1)"/>
<path d="M314.387 184.245C323.719 184.245 330.983 186.79 336.179 191.878C341.481 196.873 344.132 204.694 344.132 215.343H287.981L287.822 212.657H328.862C329.074 208.04 328.65 203.799 327.589 199.936C326.529 195.978 324.832 192.821 322.499 190.465C320.272 188.109 317.356 186.931 313.75 186.931C308.872 186.931 304.525 189.099 300.707 193.433C296.995 197.768 294.768 204.647 294.026 214.071L294.503 214.636C294.291 216.05 294.132 217.605 294.026 219.301C293.92 220.997 293.867 222.693 293.867 224.39C293.867 230.798 295.033 236.31 297.366 240.928C299.699 245.545 302.722 249.079 306.433 251.529C310.251 253.885 314.175 255.063 318.204 255.063C322.976 255.063 327.377 254.027 331.407 251.953C335.437 249.88 338.83 246.205 341.587 240.928L344.769 242.059C343.602 245.168 341.693 248.184 339.042 251.105C336.391 254.027 333.051 256.43 329.021 258.314C324.991 260.105 320.325 261 315.023 261C307.388 261 300.813 259.445 295.299 256.335C289.89 253.226 285.702 248.938 282.732 243.472C279.869 237.912 278.437 231.551 278.437 224.39C278.437 216.097 279.922 208.982 282.891 203.045C285.861 197.014 290.049 192.397 295.458 189.193C300.866 185.895 307.176 184.245 314.387 184.245Z" stroke="#F0F0F0" stroke-opacity="0.29" stroke-width="2" mask="url(#path-1-outside-1)"/>
<path d="M444.641 184.245C448.67 184.245 452.011 184.717 454.662 185.659C457.419 186.601 459.699 187.921 461.502 189.617C463.517 191.502 464.948 193.857 465.797 196.684C466.645 199.512 467.069 203.328 467.069 208.134V245.875C467.069 249.833 467.971 252.519 469.773 253.932C471.682 255.346 474.81 256.053 479.158 256.053V259.021C477.356 258.927 474.598 258.833 470.887 258.738C467.175 258.55 463.57 258.456 460.07 258.456C456.571 258.456 453.124 258.55 449.731 258.738C446.443 258.833 443.951 258.927 442.255 259.021V256.053C446.072 256.053 448.776 255.346 450.367 253.932C451.958 252.519 452.753 249.833 452.753 245.875V205.024C452.753 202.103 452.488 199.417 451.958 196.967C451.428 194.517 450.208 192.538 448.299 191.03C446.496 189.523 443.686 188.769 439.869 188.769C433.188 188.769 427.779 191.266 423.644 196.26C419.614 201.161 417.599 207.239 417.599 214.495V245.875C417.599 249.833 418.395 252.519 419.985 253.932C421.576 255.346 424.28 256.053 428.098 256.053V259.021C426.401 258.927 423.856 258.833 420.462 258.738C417.175 258.55 413.782 258.456 410.282 258.456C406.783 258.456 403.177 258.55 399.465 258.738C395.754 258.833 392.997 258.927 391.194 259.021V256.053C395.542 256.053 398.617 255.346 400.42 253.932C402.329 252.519 403.283 249.833 403.283 245.875V201.632C403.283 197.391 402.435 194.281 400.738 192.302C399.041 190.229 395.86 189.193 391.194 189.193V186.224C394.587 186.507 397.875 186.648 401.056 186.648C404.131 186.648 407.048 186.507 409.805 186.224C412.668 185.847 415.266 185.329 417.599 184.669V201.349C420.356 194.941 424.174 190.512 429.052 188.062C434.036 185.518 439.232 184.245 444.641 184.245Z" stroke="#F0F0F0" stroke-opacity="0.29" stroke-width="2" mask="url(#path-1-outside-1)"/>
</svg>
