<svg width="203" height="69" viewBox="0 0 203 69" fill="none" xmlns="http://www.w3.org/2000/svg">
<path d="M202.707 33.7071C203.098 33.3166 203.098 32.6834 202.707 32.2929L196.343 25.9289C195.953 25.5384 195.319 25.5384 194.929 25.9289C194.538 26.3195 194.538 26.9526 194.929 27.3431L200.586 33L194.929 38.6569C194.538 39.0474 194.538 39.6805 194.929 40.0711C195.319 40.4616 195.953 40.4616 196.343 40.0711L202.707 33.7071ZM0 34H202V32H0V34Z" fill="#F0F0F0"/>
<circle cx="22.5" cy="34.5" r="19" fill="#1A1A1A" stroke="#F0F0F0"/>
<circle cx="60.5" cy="33.5" r="2.5" fill="#F0F0F0"/>
<circle cx="143.5" cy="34.5" r="11.5" fill="#F0F0F0"/>
<circle cx="73.5" cy="31.5" r="3.5" fill="#F0F0F0"/>
<circle cx="86.5" cy="35.5" r="2.5" fill="#F0F0F0"/>
<circle cx="95.5" cy="31.5" r="2.5" fill="#F0F0F0"/>
<circle cx="118.5" cy="31.5" r="4.5" fill="#F0F0F0"/>
<circle cx="166.5" cy="31.5" r="2.5" fill="#F0F0F0"/>
<circle cx="183.5" cy="34.5" r="2.5" fill="#F0F0F0"/>
<line x1="33.6464" y1="18.6464" x2="51.6464" y2="0.646446" stroke="#F0F0F0"/>
<line x1="38.8494" y1="25.5232" x2="57.8494" y2="19.5232" stroke="#F0F0F0"/>
<line x1="40.1272" y1="41.5165" x2="59.1272" y2="46.5165" stroke="#F0F0F0"/>
<line x1="32.3536" y1="50.6464" x2="50.3536" y2="68.6464" stroke="#F0F0F0"/>
</svg>
